<?xml version="1.0" standalone="no"?>
<!DOCTYPE svg PUBLIC "-//W3C//DTD SVG 20010904//EN"
 "http://www.w3.org/TR/2001/REC-SVG-20010904/DTD/svg10.dtd">
<svg version="1.0" xmlns="http://www.w3.org/2000/svg"
 width="520.000000pt" height="520.000000pt" viewBox="0 0 520.000000 520.000000"
 preserveAspectRatio="xMidYMid meet">
<metadata>
Created by potrace 1.14, written by Peter Selinger 2001-2017
</metadata>
<g transform="translate(0.000000,520.000000) scale(0.100000,-0.100000)"
fill="#000000" stroke="none">
<path d="M2355 5193 c-62 -8 -231 -33 -255 -38 -14 -3 -36 -7 -50 -10 -14 -3
-40 -9 -58 -14 -18 -5 -33 -10 -35 -9 -15 2 -193 -55 -322 -104 -175 -67 -503
-253 -617 -350 -15 -13 -41 -34 -59 -48 -108 -84 -280 -256 -385 -385 -307
-379 -509 -866 -561 -1350 -10 -92 -10 -492 0 -573 46 -369 154 -697 335
-1012 215 -375 554 -715 937 -941 181 -106 425 -209 635 -267 66 -18 230 -51
330 -67 165 -25 546 -25 690 -1 14 3 41 7 60 10 60 10 94 16 120 22 14 4 34 8
45 10 83 13 352 98 413 130 15 8 30 14 35 14 12 0 217 103 297 149 466 271
862 716 1070 1206 23 55 46 109 51 120 51 119 127 421 144 572 21 175 26 433
12 583 -67 709 -427 1371 -984 1806 -189 148 -361 250 -603 356 -116 52 -377
131 -500 152 -19 3 -46 8 -60 11 -14 3 -43 7 -65 10 -22 3 -56 8 -75 11 -40 7
-500 13 -545 7z"/>
</g>
</svg>
